<svg width="1280" height="584" viewBox="0 0 1280 584" fill="none" xmlns="http://www.w3.org/2000/svg">
<path d="M0 561C30.6667 525.667 116.2 501.5 171 497.5C199.114 495.448 229.502 497.944 259.71 500.425C303.103 503.989 346.125 507.523 381.5 497.5C414.247 488.222 460.379 490.038 499.44 505.685C538.5 521.332 579.032 522 624 522C628.531 522 632.927 521.931 637.202 521.799C641.426 521.669 643.917 526.398 641.036 529.489C615.831 556.535 570.852 572.234 503 581.5C561.802 581.5 616.495 574.482 651.758 554.237C679.855 538.107 706.251 513.949 737.39 505.007C742.331 503.588 747.24 502.139 752.17 500.683C787.563 490.233 824.031 479.465 881 477.5C944.681 475.304 993.594 493.601 1037.58 510.057C1073.73 523.576 1106.55 535.853 1141.5 534.5C1219 531.5 1281 500 1281 500V-5.5H-6L-15 561H0Z" fill="#0699F9" stroke="#015087" stroke-width="4"/>
</svg>
